<svg width="112" height="40" viewBox="0 0 112 40" fill="none" xmlns="http://www.w3.org/2000/svg">
<g filter="url(#filter0_i)">
<rect width="112" height="40" rx="18" fill="#CC228C"/>
</g>
<path d="M23.3877 14.5V15.6006H25.9033V23.9062H23.3877V25H29.5811V23.9062H27.168V14.5H23.3877ZM34.8652 25.1367C35.5853 25.1367 36.1891 24.9932 36.6768 24.7061C37.1689 24.4144 37.5381 24.0817 37.7842 23.708L37.0117 23.1064C36.7793 23.4072 36.4876 23.6488 36.1367 23.8311C35.7858 24.0133 35.3848 24.1045 34.9336 24.1045C34.5918 24.1045 34.2796 24.0407 33.9971 23.9131C33.7145 23.7855 33.473 23.61 33.2725 23.3867C33.0765 23.1771 32.9215 22.9355 32.8076 22.6621C32.6982 22.3887 32.6276 22.0719 32.5957 21.7119V21.6641H37.8799V21.0967C37.8799 20.5817 37.8138 20.1032 37.6816 19.6611C37.554 19.2191 37.3581 18.834 37.0938 18.5059C36.8294 18.1823 36.4967 17.9294 36.0957 17.7471C35.6992 17.5602 35.2344 17.4668 34.7012 17.4668C34.2773 17.4668 33.8626 17.5534 33.457 17.7266C33.056 17.8997 32.6982 18.1481 32.3838 18.4717C32.0648 18.7998 31.8096 19.2008 31.6182 19.6748C31.4268 20.1442 31.3311 20.6774 31.3311 21.2744V21.5615C31.3311 22.0765 31.4176 22.5527 31.5908 22.9902C31.764 23.4277 32.0055 23.806 32.3154 24.125C32.6253 24.444 32.9967 24.6924 33.4297 24.8701C33.8672 25.0479 34.3457 25.1367 34.8652 25.1367ZM34.7012 18.5059C35.0247 18.5059 35.3027 18.5651 35.5352 18.6836C35.7721 18.8021 35.9681 18.957 36.123 19.1484C36.278 19.3398 36.3988 19.5677 36.4854 19.832C36.5719 20.0918 36.6152 20.3356 36.6152 20.5635V20.625H32.6367C32.6868 20.2832 32.7734 19.9824 32.8965 19.7227C33.0241 19.4583 33.179 19.235 33.3613 19.0527C33.5436 18.875 33.7487 18.7406 33.9766 18.6494C34.2044 18.5537 34.446 18.5059 34.7012 18.5059ZM44.8525 17.4668C44.3148 17.4668 43.834 17.5853 43.4102 17.8223C42.9909 18.0547 42.6309 18.3737 42.3301 18.7793L42.3232 18.5947L42.2686 17.6035H41.0654V25H42.3369V20.2559C42.4189 20.028 42.5215 19.8229 42.6445 19.6406C42.7721 19.4538 42.9202 19.2965 43.0889 19.1689C43.2757 19.0231 43.4945 18.9137 43.7451 18.8408C43.9958 18.7633 44.276 18.7246 44.5859 18.7246C44.8275 18.7246 45.0576 18.7383 45.2764 18.7656C45.4997 18.7884 45.7344 18.8271 45.9805 18.8818L46.1514 17.6445C46.0238 17.5898 45.8324 17.5465 45.5771 17.5146C45.3265 17.4827 45.085 17.4668 44.8525 17.4668ZM57.4033 17.6035H56.2686V25H57.4717V19.1143C57.499 19.0413 57.5332 18.973 57.5742 18.9092C57.6198 18.8454 57.6722 18.7884 57.7314 18.7383C57.8089 18.6745 57.9023 18.6266 58.0117 18.5947C58.1257 18.5583 58.2578 18.54 58.4082 18.54C58.5449 18.54 58.6634 18.5583 58.7637 18.5947C58.8685 18.6266 58.9551 18.679 59.0234 18.752C59.0964 18.8294 59.1488 18.9274 59.1807 19.0459C59.2171 19.1644 59.2354 19.3011 59.2354 19.4561V25H60.4385V19.4629C60.4385 19.4355 60.4385 19.4128 60.4385 19.3945C60.4385 19.3717 60.4385 19.349 60.4385 19.3262C60.4521 19.2122 60.4795 19.1097 60.5205 19.0186C60.5615 18.9229 60.6185 18.8385 60.6914 18.7656C60.7643 18.6973 60.8555 18.6426 60.9648 18.6016C61.0742 18.5605 61.2041 18.54 61.3545 18.54C61.4958 18.54 61.6188 18.5583 61.7236 18.5947C61.833 18.6312 61.9242 18.6859 61.9971 18.7588C62.0654 18.8363 62.1178 18.9342 62.1543 19.0527C62.1908 19.1712 62.209 19.3079 62.209 19.4629V25H63.4121V19.4766C63.4121 19.1211 63.3711 18.8135 63.2891 18.5537C63.207 18.2894 63.0885 18.0752 62.9336 17.9111C62.7923 17.7653 62.6191 17.6559 62.4141 17.583C62.209 17.5055 61.9788 17.4668 61.7236 17.4668C61.5368 17.4714 61.3636 17.4964 61.2041 17.542C61.0492 17.5876 60.9079 17.6491 60.7803 17.7266C60.68 17.7949 60.5866 17.8747 60.5 17.9658C60.4134 18.057 60.3382 18.1549 60.2744 18.2598C60.2243 18.1458 60.1628 18.0433 60.0898 17.9521C60.0215 17.861 59.944 17.7835 59.8574 17.7197C59.7389 17.6377 59.5999 17.5762 59.4404 17.5352C59.2855 17.4896 59.11 17.4668 58.9141 17.4668C58.5677 17.4714 58.2715 17.5465 58.0254 17.6924C57.7839 17.8382 57.5879 18.041 57.4375 18.3008L57.4033 17.6035ZM70.0908 25H71.4102V24.8906C71.3281 24.6855 71.2643 24.4463 71.2188 24.1729C71.1732 23.8949 71.1504 23.6328 71.1504 23.3867V19.9482C71.1504 19.5335 71.0752 19.1712 70.9248 18.8613C70.7744 18.5514 70.5693 18.2917 70.3096 18.082C70.0452 17.877 69.7331 17.7243 69.373 17.624C69.013 17.5192 68.6234 17.4668 68.2041 17.4668C67.7438 17.4668 67.3314 17.5306 66.9668 17.6582C66.6068 17.7858 66.3014 17.9521 66.0508 18.1572C65.7956 18.3669 65.5996 18.6016 65.4629 18.8613C65.3307 19.1211 65.2624 19.3854 65.2578 19.6543H66.5293C66.5293 19.4993 66.5658 19.3512 66.6387 19.21C66.7161 19.0641 66.8232 18.9388 66.96 18.834C67.0967 18.7292 67.263 18.6449 67.459 18.5811C67.6595 18.5173 67.8851 18.4854 68.1357 18.4854C68.4046 18.4854 68.6462 18.5195 68.8604 18.5879C69.0791 18.6562 69.2637 18.752 69.4141 18.875C69.5645 19.0026 69.6807 19.1553 69.7627 19.333C69.8447 19.5107 69.8857 19.7113 69.8857 19.9346V20.5156H68.5049C67.9899 20.5156 67.5228 20.5658 67.1035 20.666C66.6888 20.7663 66.3333 20.9167 66.0371 21.1172C65.7409 21.3223 65.5107 21.5775 65.3467 21.8828C65.1872 22.1882 65.1074 22.5436 65.1074 22.9492C65.1074 23.2591 65.1667 23.5485 65.2852 23.8174C65.4082 24.0817 65.5814 24.3096 65.8047 24.501C66.0234 24.6969 66.29 24.8519 66.6045 24.9658C66.9235 25.0798 67.279 25.1367 67.6709 25.1367C67.9124 25.1367 68.1403 25.1117 68.3545 25.0615C68.5687 25.0114 68.7715 24.943 68.9629 24.8564C69.1497 24.7699 69.3206 24.6696 69.4756 24.5557C69.6351 24.4417 69.7786 24.321 69.9062 24.1934C69.9199 24.3483 69.9404 24.4987 69.9678 24.6445C69.9997 24.7858 70.0407 24.9043 70.0908 25ZM67.8555 24.0361C67.6094 24.0361 67.3929 24.0042 67.2061 23.9404C67.0192 23.8766 66.8643 23.7878 66.7412 23.6738C66.6182 23.5645 66.5247 23.4323 66.4609 23.2773C66.4017 23.1224 66.3721 22.9538 66.3721 22.7715C66.3721 22.5801 66.4062 22.4092 66.4746 22.2588C66.5475 22.1084 66.6523 21.9785 66.7891 21.8691C66.9805 21.7142 67.238 21.6003 67.5615 21.5273C67.8896 21.4499 68.2725 21.4111 68.71 21.4111H69.8857V22.9082C69.8128 23.054 69.7126 23.1953 69.585 23.332C69.4574 23.4642 69.307 23.5827 69.1338 23.6875C68.9561 23.7923 68.7601 23.8766 68.5459 23.9404C68.3317 24.0042 68.1016 24.0361 67.8555 24.0361ZM73.8369 17.6035V18.7041H76.3525V23.9062H73.8369V25H80.0303V23.9062H77.6172V17.6035H73.8369ZM76.1885 15.6621C76.1885 15.8672 76.25 16.0381 76.373 16.1748C76.5007 16.3115 76.6921 16.3799 76.9473 16.3799C77.1979 16.3799 77.387 16.3115 77.5146 16.1748C77.6423 16.0381 77.7061 15.8672 77.7061 15.6621C77.7061 15.5482 77.6878 15.4434 77.6514 15.3477C77.6149 15.252 77.5602 15.1722 77.4873 15.1084C77.4281 15.0492 77.3529 15.0036 77.2617 14.9717C77.1706 14.9352 77.0658 14.917 76.9473 14.917C76.8288 14.917 76.7217 14.9352 76.626 14.9717C76.5348 15.0036 76.4596 15.0492 76.4004 15.1084C76.3275 15.1768 76.2728 15.2588 76.2363 15.3545C76.2044 15.4502 76.1885 15.5527 76.1885 15.6621ZM86.9619 23.0381C86.9619 23.1566 86.9391 23.2682 86.8936 23.373C86.848 23.4779 86.7819 23.5736 86.6953 23.6602C86.554 23.8014 86.3581 23.9131 86.1074 23.9951C85.8568 24.0726 85.5628 24.1113 85.2256 24.1113C85.0114 24.1113 84.7949 24.0885 84.5762 24.043C84.3574 23.9974 84.1592 23.9199 83.9814 23.8105C83.7992 23.7012 83.6465 23.5576 83.5234 23.3799C83.4049 23.2021 83.3366 22.9834 83.3184 22.7236H82.0537C82.0537 23.0381 82.1243 23.3411 82.2656 23.6328C82.4115 23.9245 82.6211 24.1797 82.8945 24.3984C83.1634 24.6217 83.4938 24.8018 83.8857 24.9385C84.2777 25.0706 84.7243 25.1367 85.2256 25.1367C85.6631 25.1367 86.0664 25.0843 86.4355 24.9795C86.8047 24.8747 87.1214 24.7266 87.3857 24.5352C87.6501 24.3438 87.8551 24.1136 88.001 23.8447C88.1514 23.5758 88.2266 23.2773 88.2266 22.9492C88.2266 22.6439 88.1605 22.375 88.0283 22.1426C87.9007 21.9102 87.7139 21.7051 87.4678 21.5273C87.2217 21.3542 86.9186 21.2061 86.5586 21.083C86.1986 20.9554 85.7907 20.8438 85.335 20.748C84.9886 20.6797 84.7015 20.609 84.4736 20.5361C84.2503 20.4632 84.0726 20.3812 83.9404 20.29C83.8037 20.1989 83.708 20.0964 83.6533 19.9824C83.5986 19.8685 83.5713 19.7386 83.5713 19.5928C83.5713 19.4515 83.6055 19.3148 83.6738 19.1826C83.7422 19.0505 83.8447 18.9342 83.9814 18.834C84.1136 18.7337 84.2799 18.654 84.4805 18.5947C84.6855 18.5355 84.9225 18.5059 85.1914 18.5059C85.4512 18.5059 85.6836 18.5423 85.8887 18.6152C86.0983 18.6882 86.276 18.7839 86.4219 18.9023C86.5677 19.0208 86.6816 19.1576 86.7637 19.3125C86.8457 19.4629 86.8867 19.6178 86.8867 19.7773H88.1514C88.1514 19.4538 88.0807 19.153 87.9395 18.875C87.8027 18.5924 87.6068 18.3464 87.3516 18.1367C87.0964 17.9271 86.7865 17.763 86.4219 17.6445C86.0573 17.526 85.6471 17.4668 85.1914 17.4668C84.7676 17.4668 84.3779 17.5238 84.0225 17.6377C83.6715 17.7516 83.3685 17.9066 83.1133 18.1025C82.8581 18.2985 82.6598 18.5286 82.5186 18.793C82.3773 19.0527 82.3066 19.333 82.3066 19.6338C82.3066 19.9391 82.375 20.208 82.5117 20.4404C82.6484 20.6683 82.8421 20.8665 83.0928 21.0352C83.3389 21.2083 83.6351 21.3564 83.9814 21.4795C84.3324 21.6025 84.7197 21.7074 85.1436 21.7939C85.4899 21.8623 85.7793 21.9398 86.0117 22.0264C86.2441 22.1084 86.431 22.1995 86.5723 22.2998C86.7135 22.4001 86.8138 22.5117 86.873 22.6348C86.9323 22.7533 86.9619 22.8877 86.9619 23.0381Z" fill="black"/>
<defs>
<filter id="filter0_i" x="0" y="0" width="112" height="44" filterUnits="userSpaceOnUse" color-interpolation-filters="sRGB">
<feFlood flood-opacity="0" result="BackgroundImageFix"/>
<feBlend mode="normal" in="SourceGraphic" in2="BackgroundImageFix" result="shape"/>
<feColorMatrix in="SourceAlpha" type="matrix" values="0 0 0 0 0 0 0 0 0 0 0 0 0 0 0 0 0 0 127 0" result="hardAlpha"/>
<feOffset dy="4"/>
<feGaussianBlur stdDeviation="2.5"/>
<feComposite in2="hardAlpha" operator="arithmetic" k2="-1" k3="1"/>
<feColorMatrix type="matrix" values="0 0 0 0 0 0 0 0 0 0 0 0 0 0 0 0 0 0 0.25 0"/>
<feBlend mode="normal" in2="shape" result="effect1_innerShadow"/>
</filter>
</defs>
</svg>
